<?xml version="1.0" standalone="no"?>
<!DOCTYPE svg PUBLIC "-//W3C//DTD SVG 20010904//EN"
 "http://www.w3.org/TR/2001/REC-SVG-20010904/DTD/svg10.dtd">
<svg version="1.0" xmlns="http://www.w3.org/2000/svg"
 width="369.000000pt" height="101.000000pt" viewBox="0 0 369.000000 101.000000"
 preserveAspectRatio="xMidYMid meet">

<g transform="translate(0.000000,101.000000) scale(0.100000,-0.100000)"
fill="#333333" stroke="none">
<path d="M0 510 l0 -490 1845 0 1845 0 0 490 0 490 -1845 0 -1845 0 0 -490z
m3670 220 l0 -250 -1825 0 -1825 0 0 250 0 250 1825 0 1825 0 0 -250z m-795
-420 c-3 -10 4 -34 16 -54 11 -20 16 -36 11 -36 -6 0 -14 5 -17 10 -9 14 -52
12 -58 -2 -2 -7 -8 -10 -12 -6 -4 4 2 22 14 41 11 19 18 37 15 40 -4 3 -4 13
-1 21 9 22 39 8 32 -14z m389 -5 c-3 -8 2 -28 12 -44 10 -17 14 -34 10 -38 -5
-4 -11 -2 -13 5 -3 6 -15 12 -28 12 -13 0 -25 -6 -28 -12 -2 -7 -7 -10 -11 -6
-4 3 1 21 10 40 10 18 17 37 16 42 -2 5 0 16 3 24 4 11 8 12 20 2 7 -6 11 -18
9 -25z m-3056 -32 c3 -20 -1 -23 -27 -23 -21 0 -31 -5 -31 -15 0 -8 -4 -15
-10 -15 -5 0 -10 18 -10 41 l0 40 38 -3 c30 -2 38 -7 40 -25z m139 11 c3 -8 1
-20 -5 -26 -8 -8 -9 -15 -1 -25 9 -10 8 -13 -4 -13 -8 0 -20 7 -27 15 -11 13
-14 13 -26 -2 -12 -16 -13 -13 -14 25 0 42 0 42 35 42 23 0 38 -6 42 -16z
m148 -24 c0 -34 -1 -35 -40 -35 -34 0 -40 3 -43 23 -6 42 5 53 45 50 36 -3 38
-5 38 -38z m145 30 c0 -5 -12 -10 -27 -10 -26 0 -26 -1 -7 -15 13 -10 15 -14
5 -15 -8 0 -20 -8 -27 -17 -12 -16 -13 -13 -14 25 0 41 0 42 35 42 19 0 35 -4
35 -10z m130 0 c0 -5 -15 -11 -32 -11 -18 -1 -25 -3 -15 -6 9 -2 17 -8 17 -13
0 -5 -8 -11 -17 -13 -10 -3 -3 -5 15 -6 46 -2 40 -21 -8 -21 l-40 0 0 40 0 40
40 0 c22 0 40 -4 40 -10z m135 -30 c0 -33 -2 -35 -37 -38 -27 -2 -38 1 -38 11
0 9 10 13 28 12 15 -1 18 0 7 2 -51 12 -45 56 7 51 30 -3 33 -6 33 -38z m150
0 c0 -34 -1 -35 -37 -35 -21 0 -38 3 -38 8 0 4 0 21 0 38 0 29 2 30 37 27 35
-3 37 -5 38 -38z m85 0 c0 -22 -4 -40 -10 -40 -5 0 -10 18 -10 40 0 22 5 40
10 40 6 0 10 -18 10 -40z m155 0 c0 -34 -1 -35 -42 -38 l-43 -3 0 41 0 41 43
-3 c41 -3 42 -4 42 -38z m100 20 c10 -11 22 -20 27 -20 4 0 8 9 8 20 0 11 5
20 10 20 6 0 10 -18 10 -40 0 -22 -3 -40 -7 -40 -4 0 -20 12 -35 27 l-28 27 0
-27 c0 -15 -4 -27 -10 -27 -5 0 -10 18 -10 40 0 45 8 49 35 20z m195 10 c0 -5
-12 -11 -27 -11 -17 -1 -21 -3 -10 -6 9 -2 17 -8 17 -13 0 -5 -8 -11 -17 -13
-11 -3 -7 -5 10 -6 40 -2 33 -21 -8 -21 -34 0 -35 1 -35 40 0 39 1 40 35 40
19 0 35 -4 35 -10z m111 -50 c16 0 29 -5 29 -11 0 -6 -16 -9 -37 -7 -31 2 -39
7 -41 26 -2 13 0 31 4 40 6 13 9 9 12 -15 3 -29 7 -33 33 -33z m130 0 c18 0
28 -4 24 -10 -3 -5 -22 -10 -41 -10 -32 0 -34 2 -34 33 0 44 14 58 18 18 3
-27 7 -31 33 -31z m244 20 c0 -33 -2 -35 -37 -38 l-38 -3 0 41 0 41 38 -3 c35
-3 37 -5 37 -38z m85 0 c0 -22 -4 -40 -10 -40 -5 0 -10 18 -10 40 0 22 5 40
10 40 6 0 10 -18 10 -40z m90 10 c0 -25 4 -30 25 -30 14 0 25 -4 25 -10 0 -5
-16 -10 -35 -10 -34 0 -35 1 -35 40 0 22 5 40 10 40 6 0 10 -13 10 -30z m252
15 c-2 -5 -8 -9 -14 -7 -5 1 -7 -2 -3 -8 3 -5 14 -10 23 -10 10 0 18 -8 19
-18 1 -14 -7 -18 -43 -20 -37 -1 -44 2 -44 17 0 10 3 21 8 25 4 4 8 12 8 17 1
5 2 12 3 15 0 3 11 4 24 2 12 -2 20 -7 19 -13z m253 -25 c0 -33 -2 -35 -37
-38 l-38 -3 0 41 0 41 38 -3 c35 -3 37 -5 37 -38z m275 30 c0 -5 -7 -10 -15
-10 -10 0 -15 -10 -15 -30 0 -16 -4 -30 -10 -30 -5 0 -10 14 -10 30 0 20 -5
30 -15 30 -8 0 -15 5 -15 10 0 6 18 10 40 10 22 0 40 -4 40 -10z m69 -17 l13
-28 14 28 c12 23 34 37 34 23 0 -8 -42 -76 -46 -76 -6 0 -44 63 -44 73 0 17
18 5 29 -20z m329 0 c2 -14 -2 -23 -10 -23 -10 0 -9 -3 2 -10 8 -5 11 -12 7
-16 -4 -4 -15 0 -25 9 -23 21 -32 21 -32 2 0 -8 -4 -15 -10 -15 -5 0 -10 18
-10 41 l0 40 38 -3 c30 -2 38 -7 40 -25z m136 21 c10 -4 16 -18 16 -35 0 -22
-6 -30 -24 -35 -51 -13 -80 16 -62 62 6 14 42 19 70 8z"/>
<path d="M140 740 c0 -95 1 -100 21 -100 20 0 21 4 17 70 -2 39 -3 70 -1 70 1
0 39 -31 84 -70 46 -38 89 -70 96 -70 10 0 13 25 13 100 0 95 -1 100 -21 100
-19 0 -20 -5 -17 -65 1 -36 1 -65 -2 -65 -3 0 -40 29 -82 65 -42 36 -84 65
-92 65 -13 0 -16 -16 -16 -100z"/>
<path d="M538 740 c-53 -94 -55 -100 -34 -100 14 0 28 10 36 25 12 23 19 25
76 25 55 0 64 -3 78 -25 10 -15 26 -25 41 -25 23 0 22 3 -33 100 -48 85 -61
100 -82 100 -21 0 -34 -15 -82 -100z m102 28 c11 -18 20 -36 20 -40 0 -5 -21
-8 -46 -8 l-45 0 22 40 c13 22 24 40 26 40 2 0 12 -15 23 -32z"/>
<path d="M860 752 c0 -55 4 -92 12 -100 8 -8 46 -12 105 -12 111 0 113 2 113
119 0 80 0 81 -25 81 -25 0 -25 -1 -25 -80 l0 -80 -70 0 -70 0 0 80 c0 73 -2
80 -20 80 -18 0 -20 -7 -20 -88z"/>
<path d="M1190 825 c0 -11 12 -15 45 -15 l45 0 0 -85 c0 -84 0 -85 25 -85 25
0 25 1 25 85 l0 85 45 0 c33 0 45 4 45 15 0 12 -19 15 -115 15 -96 0 -115 -3
-115 -15z"/>
<path d="M1520 740 l0 -100 25 0 25 0 0 100 0 100 -25 0 -25 0 0 -100z"/>
<path d="M1716 825 c-11 -30 -7 -160 6 -173 14 -14 175 -17 196 -3 19 12 11
65 -10 69 -13 2 -18 -3 -18 -17 0 -19 -6 -21 -65 -21 l-65 0 0 65 0 65 65 0
c58 0 65 -2 65 -20 0 -22 7 -25 28 -11 8 4 12 19 10 32 -3 23 -6 24 -104 27
-86 2 -103 0 -108 -13z"/>
<path d="M2272 828 c-15 -15 -16 -141 -2 -169 9 -17 22 -19 98 -19 48 0 93 4
100 9 19 12 11 65 -10 69 -13 2 -18 -3 -18 -17 0 -19 -6 -21 -65 -21 l-65 0 0
65 0 65 65 0 c59 0 65 -2 65 -21 0 -14 5 -19 18 -17 12 2 17 13 17 33 l0 30
-95 3 c-66 2 -99 -1 -108 -10z"/>
<path d="M2660 783 c-18 -32 -44 -77 -57 -100 l-25 -43 24 0 c17 0 29 8 36 25
11 23 17 25 77 25 60 0 66 -2 77 -25 7 -16 19 -25 35 -25 12 0 23 3 23 8 -1 4
-25 48 -53 97 -43 72 -58 91 -79 93 -22 3 -30 -5 -58 -55z m80 -23 l20 -40
-45 0 -45 0 20 40 c11 22 22 40 25 40 3 0 14 -18 25 -40z"/>
<path d="M2960 740 l0 -100 25 0 c23 0 25 4 25 40 0 35 3 40 23 40 14 0 39
-16 62 -40 31 -32 46 -40 74 -40 l35 0 -44 37 -44 38 30 5 c28 5 29 7 29 60
l0 55 -107 3 -108 3 0 -101z m178 43 c-3 -27 -6 -28 -65 -31 l-63 -3 0 31 0
30 66 0 65 0 -3 -27z"/>
<path d="M3320 740 l0 -100 105 0 c98 0 105 1 105 20 0 18 -7 20 -80 20 -79 0
-80 0 -80 25 0 23 4 25 45 25 33 0 45 4 45 15 0 11 -12 15 -45 15 -41 0 -45 2
-45 25 0 25 1 25 80 25 64 0 80 3 80 15 0 12 -18 15 -105 15 l-105 0 0 -100z"/>
<path d="M2850 260 c0 -5 5 -10 11 -10 5 0 7 5 4 10 -3 6 -8 10 -11 10 -2 0
-4 -4 -4 -10z"/>
<path d="M158 273 c6 -2 18 -2 25 0 6 3 1 5 -13 5 -14 0 -19 -2 -12 -5z"/>
<path d="M290 270 c0 -5 6 -10 14 -10 8 0 18 5 21 10 3 6 -3 10 -14 10 -12 0
-21 -4 -21 -10z"/>
<path d="M430 260 c0 -15 7 -20 25 -20 18 0 25 5 25 20 0 15 -7 20 -25 20 -18
0 -25 -5 -25 -20z"/>
<path d="M858 273 c6 -2 18 -2 25 0 6 3 1 5 -13 5 -14 0 -19 -2 -12 -5z"/>
<path d="M1003 273 c9 -2 23 -2 30 0 6 3 -1 5 -18 5 -16 0 -22 -2 -12 -5z"/>
<path d="M1003 243 c9 -2 23 -2 30 0 6 3 -1 5 -18 5 -16 0 -22 -2 -12 -5z"/>
<path d="M1230 260 c0 -15 7 -20 25 -20 18 0 25 5 25 20 0 15 -7 20 -25 20
-18 0 -25 -5 -25 -20z"/>
<path d="M2028 273 c6 -2 18 -2 25 0 6 3 1 5 -13 5 -14 0 -19 -2 -12 -5z"/>
<path d="M2028 243 c6 -2 18 -2 25 0 6 3 1 5 -13 5 -14 0 -19 -2 -12 -5z"/>
<path d="M2468 243 c7 -3 16 -2 19 1 4 3 -2 6 -13 5 -11 0 -14 -3 -6 -6z"/>
<path d="M2708 273 c6 -2 18 -2 25 0 6 3 1 5 -13 5 -14 0 -19 -2 -12 -5z"/>
<path d="M2708 243 c6 -2 18 -2 25 0 6 3 1 5 -13 5 -14 0 -19 -2 -12 -5z"/>
<path d="M3370 270 c0 -5 6 -10 14 -10 8 0 18 5 21 10 3 6 -3 10 -14 10 -12 0
-21 -4 -21 -10z"/>
<path d="M3510 260 c0 -15 7 -20 25 -20 18 0 25 5 25 20 0 15 -7 20 -25 20
-18 0 -25 -5 -25 -20z"/>
</g>
</svg>
